<svg width="200" height="188" viewBox="0 0 200 188" fill="none" xmlns="http://www.w3.org/2000/svg">
<path d="M199.924 62.0568L189.458 7.65072C189.163 6.11762 188.044 4.86749 186.549 4.41136C185.058 3.94678 183.427 4.35645 182.325 5.46299L163.277 24.5148C126.513 -9.12048 69.2473 -8.14064 33.6734 27.4332C16.7966 44.31 7.05322 66.7406 6.25499 90.5944C6.17475 92.9258 7.99926 94.8812 10.3348 94.9572C10.3813 94.9572 10.4277 94.9572 10.4784 94.9572C12.7422 94.9572 14.6174 93.1581 14.6934 90.8774C15.4283 69.1733 24.289 48.7615 39.6453 33.4051C72.9343 0.124585 127.074 0.133033 160.355 33.4051C161.939 34.9889 164.743 34.9889 166.327 33.4051L182.663 17.0647L190.451 57.5293L149.986 49.7455L155.494 44.2382C157.145 42.5868 157.145 39.9176 155.494 38.2663C153.842 36.6149 151.173 36.6149 149.522 38.2663L138.385 49.4034C137.278 50.51 136.877 52.1318 137.333 53.6269C137.789 55.1219 139.035 56.2412 140.577 56.5326L194.983 66.9982C196.355 67.26 197.774 66.8293 198.767 65.8368C199.751 64.8485 200.19 63.4294 199.924 62.0568Z" fill="black"/>
<path d="M189.661 92.5584C189.615 92.5542 189.568 92.5542 189.518 92.5542C187.254 92.5542 185.379 94.3534 185.303 96.634C184.572 118.338 175.711 138.746 160.355 154.106C127.07 187.387 72.9303 187.378 39.6456 154.106C38.0618 152.523 35.2574 152.523 33.6737 154.106L17.3375 170.447L9.54949 129.982L50.0141 137.766L44.5067 143.269C42.8554 144.916 42.8554 147.59 44.5067 149.241C46.1581 150.892 48.8273 150.892 50.4786 149.241L61.6158 138.108C62.7223 137.001 63.1236 135.38 62.6674 133.885C62.2113 132.389 60.9654 131.27 59.4238 130.979L5.02199 120.513C3.64515 120.247 2.23031 120.686 1.2378 121.675C0.249525 122.663 -0.189711 124.082 0.0763648 125.459L10.542 179.865C10.8376 181.398 11.9568 182.648 13.4519 183.104C14.9428 183.565 16.5688 183.155 17.6753 182.053L36.723 163.001C54.5838 179.341 77.2931 187.509 99.994 187.509C124.017 187.509 148.035 178.366 166.323 160.078C183.204 143.197 192.943 120.767 193.737 96.917C193.821 94.5899 191.997 92.6344 189.661 92.5584Z" fill="black"/>
</svg>
