<svg width="38" height="38" viewBox="0 0 38 38" fill="none" xmlns="http://www.w3.org/2000/svg">
<path d="M7.13916 14.1646C7.13916 12.2922 7.87016 10.5303 9.19751 9.20282C10.5246 7.87591 12.2865 7.1451 14.1592 7.14502L14.1597 8.39602C12.6217 8.39602 11.1736 8.99677 10.0825 10.0876C8.99118 11.1785 8.39035 12.6264 8.39035 14.1646H7.13916Z" fill="url(#paint0_linear)"/>
<path fill-rule="evenodd" clip-rule="evenodd" d="M35.8405 30.2463L28.0037 22.4106L26.7119 23.7021L24.8518 21.8429C28.5995 16.6404 28.0457 9.43239 23.4691 4.85596C20.9823 2.36943 17.6756 1 14.1589 1C10.6428 1 7.33601 2.36943 4.85009 4.85563C-0.283364 9.98866 -0.283364 18.3401 4.85009 23.4722C9.42638 28.049 16.6354 28.6027 21.839 24.8552L23.6995 26.7145L22.4071 28.0072L30.2438 35.8424C31.0154 36.6139 32.0286 37 33.0421 37C34.0552 36.9994 35.0693 36.6139 35.8405 35.8424C36.5879 35.0954 36.9997 34.1018 37 33.0446C37 31.9877 36.5882 30.9936 35.8405 30.2463ZM4.21973 14.1639C4.21973 8.68388 8.67871 4.22588 14.1597 4.22588C19.6408 4.22588 24.0998 8.68421 24.0997 14.1641C24.0997 16.8185 23.0657 19.3141 21.1877 21.1917C19.3101 23.069 16.8141 24.1027 14.1597 24.1027C11.5042 24.1027 9.00788 23.0688 7.13053 21.1917C5.2535 19.3146 4.21973 16.8187 4.21973 14.1639ZM32.898 33.189L31.133 31.4236L30.248 32.3082L32.0135 34.0741C32.3844 34.4444 32.8171 34.4997 33.042 34.4997C33.2673 34.4997 33.7001 34.4444 34.0716 34.073L33.1869 33.1884C33.1074 33.2681 32.9767 33.2676 32.898 33.189Z" fill="url(#paint1_linear)"/>
<path d="M7.13916 14.1646C7.13916 12.2922 7.87016 10.5303 9.19751 9.20282C10.5246 7.87591 12.2865 7.1451 14.1592 7.14502L14.1597 8.39602C12.6217 8.39602 11.1736 8.99677 10.0825 10.0876C8.99118 11.1785 8.39035 12.6264 8.39035 14.1646H7.13916Z" stroke="#CDDC39"/>
<path fill-rule="evenodd" clip-rule="evenodd" d="M35.8405 30.2463L28.0037 22.4106L26.7119 23.7021L24.8518 21.8429C28.5995 16.6404 28.0457 9.43239 23.4691 4.85596C20.9823 2.36943 17.6756 1 14.1589 1C10.6428 1 7.33601 2.36943 4.85009 4.85563C-0.283364 9.98866 -0.283364 18.3401 4.85009 23.4722C9.42638 28.049 16.6354 28.6027 21.839 24.8552L23.6995 26.7145L22.4071 28.0072L30.2438 35.8424C31.0154 36.6139 32.0286 37 33.0421 37C34.0552 36.9994 35.0693 36.6139 35.8405 35.8424C36.5879 35.0954 36.9997 34.1018 37 33.0446C37 31.9877 36.5882 30.9936 35.8405 30.2463ZM4.21973 14.1639C4.21973 8.68388 8.67871 4.22588 14.1597 4.22588C19.6408 4.22588 24.0998 8.68421 24.0997 14.1641C24.0997 16.8185 23.0657 19.3141 21.1877 21.1917C19.3101 23.069 16.8141 24.1027 14.1597 24.1027C11.5042 24.1027 9.00788 23.0688 7.13053 21.1917C5.2535 19.3146 4.21973 16.8187 4.21973 14.1639ZM32.898 33.189L31.133 31.4236L30.248 32.3082L32.0135 34.0741C32.3844 34.4444 32.8171 34.4997 33.042 34.4997C33.2673 34.4997 33.7001 34.4444 34.0716 34.073L33.1869 33.1884C33.1074 33.2681 32.9767 33.2676 32.898 33.189Z" stroke="#CDDC39"/>
<defs>
<linearGradient id="paint0_linear" x1="19" y1="1" x2="19" y2="37" gradientUnits="userSpaceOnUse">
<stop stop-color="#31342E"/>
<stop offset="1" stop-color="#27292D"/>
</linearGradient>
<linearGradient id="paint1_linear" x1="19" y1="1" x2="19" y2="37" gradientUnits="userSpaceOnUse">
<stop stop-color="#31342E"/>
<stop offset="1" stop-color="#27292D"/>
</linearGradient>
</defs>
</svg>
